<svg width="128" height="85" viewBox="0 0 1 1" style="background-color: #FFF" preserveAspectRatio="none" xmlns="http://www.w3.org/2000/svg" xmlns:xlink="http://www.w3.org/1999/xlink">
<rect id="elem_0" class="imageElement" x="0.000000" y="0.000000" width="1.000000" height="1.000000" fill="rgb(140,86,75)" opacity="0.800"/>
<rect id="elem_1" class="<UNKNOWN>" x="0.000000" y="0.000000" width="0.095238" height="0.015873" fill="rgb(31,119,180)" opacity="0.800"/>
<rect id="elem_2" class="<UNKNOWN>" x="0.000000" y="0.000000" width="0.000000" height="0.000000" fill="rgb(31,119,180)" opacity="0.800"/>
<rect id="elem_3" class="<UNKNOWN>" x="0.000000" y="0.000000" width="0.000000" height="0.000000" fill="rgb(31,119,180)" opacity="0.800"/>
<rect id="elem_4" class="<UNKNOWN>" x="0.000000" y="0.095238" width="0.000000" height="0.000000" fill="rgb(31,119,180)" opacity="0.800"/>
<rect id="elem_5" class="maskElement" x="0.000000" y="0.126984" width="0.333333" height="0.206349" fill="rgb(158,218,229)" opacity="0.800"/>
<rect id="elem_6" class="<UNKNOWN>" x="0.000000" y="0.222222" width="0.000000" height="0.000000" fill="rgb(31,119,180)" opacity="0.800"/>
<rect id="elem_7" class="textElement" x="0.063492" y="0.317460" width="0.253968" height="0.015873" fill="rgb(152,223,138)" opacity="0.800"/>
<rect id="elem_8" class="<UNKNOWN>" x="0.000000" y="0.396825" width="0.000000" height="0.000000" fill="rgb(31,119,180)" opacity="0.800"/>
<rect id="elem_9" class="maskElement" x="0.000000" y="0.333333" width="0.222222" height="0.206349" fill="rgb(158,218,229)" opacity="0.800"/>
<rect id="elem_10" class="<UNKNOWN>" x="0.000000" y="0.873016" width="0.000000" height="0.000000" fill="rgb(31,119,180)" opacity="0.800"/>
<rect id="elem_11" class="maskElement" x="0.000000" y="0.349206" width="0.222222" height="0.095238" fill="rgb(158,218,229)" opacity="0.800"/>
<rect id="elem_12" class="textElement" x="0.063492" y="0.619048" width="0.190476" height="0.015873" fill="rgb(152,223,138)" opacity="0.800"/>
<rect id="elem_13" class="<UNKNOWN>" x="0.000000" y="0.841270" width="0.000000" height="0.000000" fill="rgb(31,119,180)" opacity="0.800"/>
<rect id="elem_14" class="<UNKNOWN>" x="0.000000" y="0.841270" width="0.000000" height="0.000000" fill="rgb(31,119,180)" opacity="0.800"/>
<rect id="elem_15" class="maskElement" x="0.111111" y="0.333333" width="0.095238" height="0.015873" fill="rgb(158,218,229)" opacity="0.800"/>
<rect id="elem_16" class="<UNKNOWN>" x="0.000000" y="0.000000" width="0.000000" height="0.000000" fill="rgb(31,119,180)" opacity="0.000"/>
</svg>