<svg width="128" height="64" viewBox="0 0 1 1" style="background-color: #FFF" preserveAspectRatio="none" xmlns="http://www.w3.org/2000/svg" xmlns:xlink="http://www.w3.org/1999/xlink">
<rect id="elem_0" class="imageElement" x="0.000000" y="0.000000" width="1.000000" height="1.000000" fill="rgb(140,86,75)" opacity="0.800"/>
<rect id="elem_1" class="<UNKNOWN>" x="0.000000" y="0.000000" width="1.000000" height="0.000000" fill="rgb(31,119,180)" opacity="0.800"/>
<rect id="elem_2" class="textElement" x="0.079365" y="0.079365" width="0.206349" height="0.031746" fill="rgb(152,223,138)" opacity="0.800"/>
<rect id="elem_3" class="<UNKNOWN>" x="0.000000" y="0.000000" width="0.000000" height="0.000000" fill="rgb(31,119,180)" opacity="0.800"/>
<rect id="elem_4" class="<UNKNOWN>" x="0.000000" y="0.000000" width="0.000000" height="0.000000" fill="rgb(31,119,180)" opacity="0.800"/>
<rect id="elem_5" class="textElement" x="0.079365" y="0.190476" width="0.206349" height="0.031746" fill="rgb(152,223,138)" opacity="0.800"/>
<rect id="elem_6" class="<UNKNOWN>" x="0.000000" y="0.380952" width="0.000000" height="0.000000" fill="rgb(31,119,180)" opacity="0.800"/>
<rect id="elem_7" class="<UNKNOWN>" x="0.000000" y="0.380952" width="0.000000" height="0.000000" fill="rgb(31,119,180)" opacity="0.800"/>
<rect id="elem_8" class="textElement" x="0.079365" y="0.476190" width="0.174603" height="0.015873" fill="rgb(152,223,138)" opacity="0.800"/>
<rect id="elem_9" class="<UNKNOWN>" x="0.000000" y="0.682540" width="0.031746" height="0.000000" fill="rgb(31,119,180)" opacity="0.800"/>
<rect id="elem_10" class="<UNKNOWN>" x="0.000000" y="0.841270" width="0.000000" height="0.000000" fill="rgb(31,119,180)" opacity="0.800"/>
<rect id="elem_11" class="textElement" x="0.079365" y="0.444444" width="0.206349" height="0.015873" fill="rgb(152,223,138)" opacity="0.800"/>
<rect id="elem_12" class="textElement" x="0.079365" y="0.841270" width="0.206349" height="0.015873" fill="rgb(152,223,138)" opacity="0.800"/>
<rect id="elem_13" class="<UNKNOWN>" x="0.000000" y="0.841270" width="0.000000" height="0.000000" fill="rgb(31,119,180)" opacity="0.800"/>
<rect id="elem_14" class="<UNKNOWN>" x="0.000000" y="0.000000" width="0.000000" height="0.000000" fill="rgb(31,119,180)" opacity="0.000"/>
</svg>